<mxfile host="app.diagrams.net" modified="2023-05-30T01:52:31.826Z" agent="Mozilla/5.0 (Windows NT 10.0; WOW64) AppleWebKit/537.36 (KHTML, like Gecko) Chrome/86.0.4240.198 Safari/537.36" etag="d2afj8yLwQiYM7Uq07sY" version="21.3.5" type="github">
  <diagram name="Page-1" id="e3a06f82-3646-2815-327d-82caf3d4e204">
    <mxGraphModel dx="880" dy="451" grid="1" gridSize="10" guides="1" tooltips="1" connect="1" arrows="1" fold="1" page="1" pageScale="1.5" pageWidth="1920" pageHeight="1200" background="none" math="0" shadow="0">
      <root>
        <mxCell id="0" style=";html=1;" />
        <mxCell id="1" style=";html=1;" parent="0" />
        <mxCell id="EcmhIjrM82O5D-1L9QHa-14" value="DMZ区" style="whiteSpace=wrap;html=1;fillColor=#fff2cc;fontSize=17;strokeColor=#d6b656;verticalAlign=top;" vertex="1" parent="1">
          <mxGeometry x="960" y="96" width="330" height="682" as="geometry" />
        </mxCell>
        <mxCell id="6a7d8f32e03d9370-60" value="线路商呼叫中心" style="whiteSpace=wrap;html=1;fillColor=#d5e8d4;fontSize=17;strokeColor=none;verticalAlign=top;" parent="1" vertex="1">
          <mxGeometry x="1360" y="100" width="270" height="680" as="geometry" />
        </mxCell>
        <mxCell id="6a7d8f32e03d9370-59" value="APP区" style="whiteSpace=wrap;html=1;fillColor=#EDEDED;fontSize=17;strokeColor=none;verticalAlign=top;" parent="1" vertex="1">
          <mxGeometry x="599" y="98" width="280" height="682" as="geometry" />
        </mxCell>
        <mxCell id="6a7d8f32e03d9370-57" value="办公网络" style="whiteSpace=wrap;html=1;fillColor=#FFD470;gradientColor=none;fontSize=17;strokeColor=none;verticalAlign=top;" parent="1" vertex="1">
          <mxGeometry x="210" y="98" width="308" height="680" as="geometry" />
        </mxCell>
        <mxCell id="6a7d8f32e03d9370-35" style="edgeStyle=none;rounded=0;html=1;startSize=10;endSize=10;jettySize=auto;orthogonalLoop=1;fontSize=17;endArrow=none;endFill=0;strokeWidth=2;entryX=-0.033;entryY=0.551;entryDx=0;entryDy=0;entryPerimeter=0;exitX=0.634;exitY=0.289;exitDx=0;exitDy=0;exitPerimeter=0;" parent="1" source="6a7d8f32e03d9370-2" target="6a7d8f32e03d9370-11" edge="1">
          <mxGeometry relative="1" as="geometry">
            <mxPoint x="637" y="693.320415879017" as="targetPoint" />
          </mxGeometry>
        </mxCell>
        <mxCell id="6a7d8f32e03d9370-2" value="Client" style="verticalLabelPosition=bottom;aspect=fixed;html=1;verticalAlign=top;strokeColor=none;shape=mxgraph.citrix.laptop_2;fillColor=#66B2FF;gradientColor=#0066CC;fontSize=17;" parent="1" vertex="1">
          <mxGeometry x="303.9999999999999" y="649" width="116" height="86.5" as="geometry" />
        </mxCell>
        <mxCell id="6a7d8f32e03d9370-34" style="edgeStyle=none;rounded=0;html=1;startSize=10;endSize=10;jettySize=auto;orthogonalLoop=1;fontSize=17;endArrow=none;endFill=0;strokeWidth=2;entryX=-0.007;entryY=0.528;entryDx=0;entryDy=0;entryPerimeter=0;exitX=0.742;exitY=0.469;exitDx=0;exitDy=0;exitPerimeter=0;" parent="1" source="6a7d8f32e03d9370-3" target="6a7d8f32e03d9370-11" edge="1">
          <mxGeometry relative="1" as="geometry" />
        </mxCell>
        <mxCell id="6a7d8f32e03d9370-3" value="client" style="verticalLabelPosition=bottom;aspect=fixed;html=1;verticalAlign=top;strokeColor=none;shape=mxgraph.citrix.desktop;fillColor=#66B2FF;gradientColor=#0066CC;fontSize=17;" parent="1" vertex="1">
          <mxGeometry x="334.99999999999994" y="483.99999999999994" width="89" height="98" as="geometry" />
        </mxCell>
        <mxCell id="6a7d8f32e03d9370-33" style="edgeStyle=none;rounded=0;html=1;startSize=10;endSize=10;jettySize=auto;orthogonalLoop=1;fontSize=17;endArrow=none;endFill=0;strokeWidth=2;entryX=0.487;entryY=0.607;entryDx=0;entryDy=0;entryPerimeter=0;" parent="1" source="6a7d8f32e03d9370-4" target="6a7d8f32e03d9370-11" edge="1">
          <mxGeometry relative="1" as="geometry">
            <mxPoint x="620" y="369" as="targetPoint" />
          </mxGeometry>
        </mxCell>
        <mxCell id="6a7d8f32e03d9370-4" value="Client" style="verticalLabelPosition=bottom;aspect=fixed;html=1;verticalAlign=top;strokeColor=none;shape=mxgraph.citrix.desktop;fillColor=#66B2FF;gradientColor=#0066CC;fontSize=17;" parent="1" vertex="1">
          <mxGeometry x="334.99999999999994" y="320.00000000000006" width="89" height="98" as="geometry" />
        </mxCell>
        <mxCell id="6a7d8f32e03d9370-32" style="edgeStyle=none;rounded=0;html=1;startSize=10;endSize=10;jettySize=auto;orthogonalLoop=1;fontSize=17;endArrow=none;endFill=0;strokeWidth=2;entryX=0.178;entryY=0.596;entryDx=0;entryDy=0;entryPerimeter=0;" parent="1" source="6a7d8f32e03d9370-5" target="6a7d8f32e03d9370-11" edge="1">
          <mxGeometry relative="1" as="geometry" />
        </mxCell>
        <mxCell id="6a7d8f32e03d9370-5" value="Client" style="verticalLabelPosition=bottom;aspect=fixed;html=1;verticalAlign=top;strokeColor=none;shape=mxgraph.citrix.desktop;fillColor=#66B2FF;gradientColor=#0066CC;fontSize=17;" parent="1" vertex="1">
          <mxGeometry x="331.00000000000006" y="156.00000000000006" width="89" height="98" as="geometry" />
        </mxCell>
        <mxCell id="6a7d8f32e03d9370-44" style="edgeStyle=none;rounded=0;html=1;startSize=10;endSize=10;jettySize=auto;orthogonalLoop=1;fontSize=17;endArrow=none;endFill=0;strokeWidth=2;" parent="1" source="6a7d8f32e03d9370-17" edge="1">
          <mxGeometry relative="1" as="geometry">
            <mxPoint x="1052.6999999999998" y="302.10331367106187" as="targetPoint" />
          </mxGeometry>
        </mxCell>
        <mxCell id="6a7d8f32e03d9370-19" value="" style="verticalLabelPosition=bottom;aspect=fixed;html=1;verticalAlign=top;strokeColor=none;shape=mxgraph.citrix.firewall;fillColor=#66B2FF;gradientColor=#0066CC;fontSize=17;" parent="1" vertex="1">
          <mxGeometry x="762.5" y="590" width="75" height="93" as="geometry" />
        </mxCell>
        <mxCell id="6a7d8f32e03d9370-49" style="edgeStyle=none;rounded=0;html=1;startSize=10;endSize=10;jettySize=auto;orthogonalLoop=1;fontSize=17;endArrow=none;endFill=0;strokeWidth=2;" parent="1" source="EcmhIjrM82O5D-1L9QHa-22" target="EcmhIjrM82O5D-1L9QHa-15" edge="1">
          <mxGeometry relative="1" as="geometry">
            <mxPoint x="1633.25" y="6.5" as="sourcePoint" />
            <mxPoint x="1340.003920836445" y="216" as="targetPoint" />
          </mxGeometry>
        </mxCell>
        <mxCell id="6a7d8f32e03d9370-62" value="智能催收系统网络架构图" style="text;strokeColor=none;fillColor=none;html=1;fontSize=17;fontStyle=1;verticalAlign=middle;align=center;" parent="1" vertex="1">
          <mxGeometry x="499" y="30" width="861" height="40" as="geometry" />
        </mxCell>
        <mxCell id="6a7d8f32e03d9370-43" style="edgeStyle=none;rounded=0;html=1;startSize=10;endSize=10;jettySize=auto;orthogonalLoop=1;fontSize=17;endArrow=none;endFill=0;strokeWidth=2;exitX=0.52;exitY=0.584;exitDx=0;exitDy=0;exitPerimeter=0;" parent="1" source="EcmhIjrM82O5D-1L9QHa-6" target="6a7d8f32e03d9370-17" edge="1">
          <mxGeometry relative="1" as="geometry" />
        </mxCell>
        <mxCell id="6a7d8f32e03d9370-12" value="" style="verticalLabelPosition=bottom;aspect=fixed;html=1;verticalAlign=top;strokeColor=none;shape=mxgraph.citrix.xenapp_server;fillColor=#66B2FF;gradientColor=#0066CC;fontSize=17;" parent="1" vertex="1">
          <mxGeometry x="640.5000000000001" y="251" width="76" height="89" as="geometry" />
        </mxCell>
        <mxCell id="6a7d8f32e03d9370-17" value="" style="verticalLabelPosition=bottom;aspect=fixed;html=1;verticalAlign=top;strokeColor=none;shape=mxgraph.citrix.firewall;fillColor=#66B2FF;gradientColor=#0066CC;fontSize=17;" parent="1" vertex="1">
          <mxGeometry x="762.5" y="251" width="75" height="93" as="geometry" />
        </mxCell>
        <mxCell id="EcmhIjrM82O5D-1L9QHa-5" style="edgeStyle=none;rounded=0;html=1;startSize=10;endSize=10;jettySize=auto;orthogonalLoop=1;fontSize=17;endArrow=none;endFill=0;strokeWidth=2;exitX=0.388;exitY=0.652;exitDx=0;exitDy=0;exitPerimeter=0;entryX=0.414;entryY=0.348;entryDx=0;entryDy=0;entryPerimeter=0;" edge="1" parent="1" source="EcmhIjrM82O5D-1L9QHa-6" target="6a7d8f32e03d9370-11">
          <mxGeometry relative="1" as="geometry">
            <mxPoint x="461" y="262" as="sourcePoint" />
            <mxPoint x="664" y="450" as="targetPoint" />
          </mxGeometry>
        </mxCell>
        <mxCell id="EcmhIjrM82O5D-1L9QHa-6" value="" style="verticalLabelPosition=bottom;aspect=fixed;html=1;verticalAlign=top;strokeColor=none;shape=mxgraph.citrix.xenapp_server;fillColor=#66B2FF;gradientColor=#0066CC;fontSize=17;" vertex="1" parent="1">
          <mxGeometry x="640.4999999999999" y="246" width="76" height="89" as="geometry" />
        </mxCell>
        <mxCell id="EcmhIjrM82O5D-1L9QHa-8" style="edgeStyle=none;rounded=0;html=1;startSize=10;endSize=10;jettySize=auto;orthogonalLoop=1;fontSize=17;endArrow=none;endFill=0;strokeWidth=2;entryX=0.362;entryY=0.506;entryDx=0;entryDy=0;entryPerimeter=0;" edge="1" parent="1" target="6a7d8f32e03d9370-11">
          <mxGeometry relative="1" as="geometry">
            <mxPoint x="668" y="630" as="sourcePoint" />
            <mxPoint x="682" y="456" as="targetPoint" />
          </mxGeometry>
        </mxCell>
        <mxCell id="6a7d8f32e03d9370-41" style="edgeStyle=none;rounded=0;html=1;startSize=10;endSize=10;jettySize=auto;orthogonalLoop=1;fontSize=17;endArrow=none;endFill=0;strokeWidth=2;exitX=0.336;exitY=0.517;exitDx=0;exitDy=0;exitPerimeter=0;" parent="1" source="6a7d8f32e03d9370-10" target="6a7d8f32e03d9370-19" edge="1">
          <mxGeometry relative="1" as="geometry" />
        </mxCell>
        <mxCell id="6a7d8f32e03d9370-10" value="" style="verticalLabelPosition=bottom;aspect=fixed;html=1;verticalAlign=top;strokeColor=none;shape=mxgraph.citrix.xenapp_server;fillColor=#66B2FF;gradientColor=#0066CC;fontSize=17;" parent="1" vertex="1">
          <mxGeometry x="640.4999999999999" y="590" width="76" height="89" as="geometry" />
        </mxCell>
        <mxCell id="6a7d8f32e03d9370-11" value="" style="verticalLabelPosition=bottom;aspect=fixed;html=1;verticalAlign=top;strokeColor=none;shape=mxgraph.citrix.xenapp_server;fillColor=#66B2FF;gradientColor=#0066CC;fontSize=17;" parent="1" vertex="1">
          <mxGeometry x="640.4999999999999" y="415" width="76" height="89" as="geometry" />
        </mxCell>
        <mxCell id="EcmhIjrM82O5D-1L9QHa-13" value="" style="edgeStyle=none;rounded=0;html=1;startSize=10;endSize=10;jettySize=auto;orthogonalLoop=1;fontSize=17;endArrow=none;endFill=0;strokeWidth=2;" edge="1" parent="1" source="6a7d8f32e03d9370-19">
          <mxGeometry relative="1" as="geometry">
            <mxPoint x="838" y="637" as="sourcePoint" />
            <mxPoint x="1070" y="640" as="targetPoint" />
          </mxGeometry>
        </mxCell>
        <mxCell id="EcmhIjrM82O5D-1L9QHa-15" value="" style="verticalLabelPosition=bottom;sketch=0;aspect=fixed;html=1;verticalAlign=top;strokeColor=none;align=center;outlineConnect=0;shape=mxgraph.citrix.license_server;fontSize=17;" vertex="1" parent="1">
          <mxGeometry x="1000" y="260" width="65" height="85" as="geometry" />
        </mxCell>
        <mxCell id="EcmhIjrM82O5D-1L9QHa-16" value="" style="verticalLabelPosition=bottom;sketch=0;aspect=fixed;html=1;verticalAlign=top;strokeColor=none;align=center;outlineConnect=0;shape=mxgraph.citrix.license_server;fontSize=17;" vertex="1" parent="1">
          <mxGeometry x="1000" y="598" width="65" height="85" as="geometry" />
        </mxCell>
        <mxCell id="EcmhIjrM82O5D-1L9QHa-17" value="AI外呼 FreeSwitch" style="text;strokeColor=none;align=center;fillColor=none;html=1;verticalAlign=middle;whiteSpace=wrap;rounded=0;fontSize=17;" vertex="1" parent="1">
          <mxGeometry x="1005" y="221" width="60" height="30" as="geometry" />
        </mxCell>
        <mxCell id="EcmhIjrM82O5D-1L9QHa-18" value="全媒体客服 FreeSwitch" style="text;strokeColor=none;align=center;fillColor=none;html=1;verticalAlign=middle;whiteSpace=wrap;rounded=0;fontSize=17;" vertex="1" parent="1">
          <mxGeometry x="1000" y="560" width="60" height="30" as="geometry" />
        </mxCell>
        <mxCell id="EcmhIjrM82O5D-1L9QHa-19" value="AI外呼" style="text;strokeColor=none;align=center;fillColor=none;html=1;verticalAlign=middle;whiteSpace=wrap;rounded=0;fontSize=17;" vertex="1" parent="1">
          <mxGeometry x="648.5" y="210" width="60" height="30" as="geometry" />
        </mxCell>
        <mxCell id="EcmhIjrM82O5D-1L9QHa-20" value="全媒体客服" style="text;strokeColor=none;align=center;fillColor=none;html=1;verticalAlign=middle;whiteSpace=wrap;rounded=0;fontSize=17;" vertex="1" parent="1">
          <mxGeometry x="640.5" y="690" width="60" height="30" as="geometry" />
        </mxCell>
        <mxCell id="EcmhIjrM82O5D-1L9QHa-21" value="智能催收" style="text;strokeColor=none;align=center;fillColor=none;html=1;verticalAlign=middle;whiteSpace=wrap;rounded=0;fontSize=17;" vertex="1" parent="1">
          <mxGeometry x="716.5" y="447" width="60" height="30" as="geometry" />
        </mxCell>
        <mxCell id="EcmhIjrM82O5D-1L9QHa-22" value="" style="verticalLabelPosition=bottom;sketch=0;aspect=fixed;html=1;verticalAlign=top;strokeColor=none;align=center;outlineConnect=0;shape=mxgraph.citrix.pbx_server;fontSize=17;" vertex="1" parent="1">
          <mxGeometry x="1462.5" y="259" width="65" height="85" as="geometry" />
        </mxCell>
        <mxCell id="EcmhIjrM82O5D-1L9QHa-23" value="" style="verticalLabelPosition=bottom;sketch=0;aspect=fixed;html=1;verticalAlign=top;strokeColor=none;align=center;outlineConnect=0;shape=mxgraph.citrix.pbx_server;fontSize=17;" vertex="1" parent="1">
          <mxGeometry x="1462.5" y="605" width="65" height="85" as="geometry" />
        </mxCell>
        <mxCell id="EcmhIjrM82O5D-1L9QHa-24" style="edgeStyle=none;rounded=0;html=1;startSize=10;endSize=10;jettySize=auto;orthogonalLoop=1;fontSize=17;endArrow=none;endFill=0;strokeWidth=2;" edge="1" parent="1" source="EcmhIjrM82O5D-1L9QHa-23" target="EcmhIjrM82O5D-1L9QHa-16">
          <mxGeometry relative="1" as="geometry">
            <mxPoint x="1290" y="640" as="sourcePoint" />
            <mxPoint x="1150" y="649" as="targetPoint" />
          </mxGeometry>
        </mxCell>
        <mxCell id="EcmhIjrM82O5D-1L9QHa-25" value="" style="verticalLabelPosition=bottom;aspect=fixed;html=1;verticalAlign=top;strokeColor=none;shape=mxgraph.citrix.firewall;fillColor=#66B2FF;gradientColor=#0066CC;fontSize=17;" vertex="1" parent="1">
          <mxGeometry x="1140" y="593" width="75" height="93" as="geometry" />
        </mxCell>
        <mxCell id="EcmhIjrM82O5D-1L9QHa-26" value="" style="verticalLabelPosition=bottom;aspect=fixed;html=1;verticalAlign=top;strokeColor=none;shape=mxgraph.citrix.firewall;fillColor=#66B2FF;gradientColor=#0066CC;fontSize=17;" vertex="1" parent="1">
          <mxGeometry x="1140" y="254" width="75" height="93" as="geometry" />
        </mxCell>
      </root>
    </mxGraphModel>
  </diagram>
</mxfile>
